PathFileType	4	(X/Y/Z)	/Users/niels/Desktop/University/Third Semester/Perception and Action/Exam/Gymnastics Motion Tracking/Code for Gym Tracking/Analyzed Data/Webcam_Backflip/id1_3_trajectory_Sports2D/id1_3_trajectory_Sports2D_px_person00.trc
DataRate	CameraRate	NumFrames	NumMarkers	Units	OrigDataRate	OrigDataStartFrame	OrigNumFrames
29.87551867219917	29.87551867219917	7	22	m	29.87551867219917	60	241
Frame#	Time	Hip			RHip			RKnee			RAnkle			RBigToe			RSmallToe			RHeel			LHip			LKnee			LAnkle			LBigToe			LSmallToe			LHeel			Neck			Head			Nose			RShoulder			RElbow			RWrist			LShoulder			LElbow			LWrist		
		X1	Y1	Z1	X2	Y2	Z2	X3	Y3	Z3	X4	Y4	Z4	X5	Y5	Z5	X6	Y6	Z6	X7	Y7	Z7	X8	Y8	Z8	X9	Y9	Z9	X10	Y10	Z10	X11	Y11	Z11	X12	Y12	Z12	X13	Y13	Z13	X14	Y14	Z14	X15	Y15	Z15	X16	Y16	Z16	X17	Y17	Z17	X18	Y18	Z18	X19	Y19	Z19	X20	Y20	Z20	X21	Y21	Z21	X22	Y22	Z22
60	2.0083333333333333	0.9457267332594341	-0.4318756450180136	0.0	0.9478033755767452	-0.43433886297230373	0.0	1.0374684060521373	-0.4263718766537169	0.0	1.0233098555594602	-0.530853642229732	0.0	1.0327335427434858	-0.5656986346755217	0.0	1.0312819407621177	-0.5644618538814751	0.0	1.0150601495003304	-0.5446270542093112	0.0	0.9428370936374775	-0.42794988770341663	0.0	1.0286783199710587	-0.42508735870746656	0.0	1.0180216585215582	-0.5313278523912772	0.0	1.026055721398192	-0.565706780227513	0.0	1.0219312286599573	-0.5628234965241644	0.0	1.0080326520972596	-0.5439938135392335	0.0	0.8550497954907863	-0.31633874341361806	0.0	0.7958778929476061	-0.2605343201877525	0.0	0.8395306125040763	-0.265887432337565	0.0	0.8603283863629548	-0.3187056378509422	0.0	0.8853297991875908	-0.2661180893452291	0.0	0.8973030342371594	-0.20459771242014818	0.0	0.8638895079154083	-0.3157224520630597	0.0	0.8917802417822245	-0.26955356701155214	0.0	0.8983365018136158	-0.21426914045759	0.0
61	2.0418055555555554	0.9492179249047895	-0.40941303883116137	0.0	0.9514403003371327	-0.41230960633186947	0.0	1.030609285627045	-0.3675996845715923	0.0	1.041441634461739	-0.4647788646268561	0.0	1.0570694161744238	-0.48881583329155404	0.0	1.0575485732584373	-0.4883237045254716	0.0	1.0371428028017484	-0.4795493759988185	0.0	0.9459240014848856	-0.40365789593683987	0.0	1.0226124027859933	-0.36655954674041696	0.0	1.0339167546260326	-0.4618892348712621	0.0	1.041455486987426	-0.4841989740976416	0.0	1.0375038408919708	-0.4829456945566319	0.0	1.0300567478086076	-0.4768694329053795	0.0	0.8484509690197457	-0.3078317234354915	0.0	0.7862087551243008	-0.26017878927668564	0.0	0.828683922318802	-0.2599256013468847	0.0	0.856217107188992	-0.3102386642509921	0.0	0.8950681865565421	-0.2691894245997373	0.0	0.9160736417914586	-0.20816152067447338	0.0	0.8588266443301302	-0.30852002506561316	0.0	0.9000777018961162	-0.2721026175703437	0.0	0.9164528455726021	-0.2204666596049032	0.0
62	2.075277777777778	0.9549711708603834	-0.3885075452572722	0.0	0.9573173571988101	-0.3913165344010672	0.0	1.0128559365317946	-0.31698138565662237	0.0	1.0508284626985538	-0.4008385627666578	0.0	1.071049857638599	-0.412588155941888	0.0	1.0732609590929487	-0.4125260426394641	0.0	1.0513498277709887	-0.4160802964113542	0.0	0.9509627314847385	-0.38164100268076334	0.0	1.0061646409376304	-0.31653503772961195	0.0	1.0407719721938393	-0.39485065848952794	0.0	1.0473772268349788	-0.4016570089085291	0.0	1.0436588674629161	-0.4026054693411867	0.0	1.0444747243989718	-0.4112181867589462	0.0	0.8452772627385765	-0.3073527400778518	0.0	0.7813159126781221	-0.26974834530050207	0.0	0.8212764576174126	-0.26384324313999913	0.0	0.8560596404798578	-0.30891626968560537	0.0	0.907846107887046	-0.2771164784351759	0.0	0.93601111758277	-0.21639563637147666	0.0	0.8565508824472083	-0.30884871058392166	0.0	0.9094980764460381	-0.2790291234381935	0.0	0.9350412752304076	-0.22984694595872657	0.0
63	2.10875	0.9620657429380428	-0.3681285999090132	0.0	0.9641607159615213	-0.3703299397829462	0.0	0.9873006050674163	-0.2776071745711056	0.0	1.049343197113545	-0.3421346081099928	0.0	1.070215499121591	-0.34281764941425713	0.0	1.0738377157261683	-0.3423543735221849	0.0	1.054785580805747	-0.3567113393610975	0.0	0.957645880820748	-0.36116133982508336	0.0	0.9826807655423779	-0.2777966801448967	0.0	1.0373549310041343	-0.3338361995341938	0.0	1.0430944936924695	-0.3245532626143427	0.0	1.0398426562395597	-0.32738550613691814	0.0	1.0486563768120414	-0.34968614651103735	0.0	0.8467242158599861	-0.3144103111151332	0.0	0.7833251047081988	-0.289357921124331	0.0	0.8190522080479813	-0.27801389674163646	0.0	0.8599844475794521	-0.31412435555967344	0.0	0.9207260390856085	-0.2865605965732334	0.0	0.9519920511005433	-0.22563708680928077	0.0	0.8584601735759277	-0.3157298618877493	0.0	0.9185543619367211	-0.28764778412714587	0.0	0.9495270124032698	-0.23846398301471605	0.0
64	2.1422222222222222	0.9687656705979886	-0.347790215832224	0.0	0.9700668533503266	-0.3491791595249534	0.0	0.9580339969128318	-0.25075690158649117	0.0	1.0373329862096765	-0.29149851929058673	0.0	1.0546388831736753	-0.28421737975046046	0.0	1.0591593720314958	-0.2826504386983601	0.0	1.0470571430578348	-0.30396949853476857	0.0	0.9648606277282964	-0.3415566519727045	0.0	0.9562891264381875	-0.25146971441896987	0.0	1.02531522261282	-0.2818483241315229	0.0	1.0305255625395846	-0.2589257775948214	0.0	1.0282353024021782	-0.26253458127446794	0.0	1.042522362157226	-0.2949016512786273	0.0	0.8539509920548631	-0.32793902123114516	0.0	0.7943189735755264	-0.31815612141399247	0.0	0.8237479066428632	-0.3018676606914756	0.0	0.8680749231308826	-0.32470528501102225	0.0	0.931944573524366	-0.2947479264202749	0.0	0.9609286418638736	-0.23284391523962522	0.0	0.8657503510959417	-0.3278782850890384	0.0	0.9270676145601974	-0.29625961662983746	0.0	0.9572432930988451	-0.24424651115766938	0.0
65	2.1756944444444444	0.9734577267235232	-0.3276060764835053	0.0	0.9735793395735097	-0.328363459790831	0.0	0.9288323441614623	-0.2359354906461366	0.0	1.0170674182175687	-0.25058345040104685	0.0	1.0280635792259842	-0.23864035282233897	0.0	1.0328404754429992	-0.2360025353731279	0.0	1.029937184368343	-0.25954002777378815	0.0	0.9710602597963485	-0.3225364409300378	0.0	0.930321586232817	-0.23706895270991912	0.0	1.0078291289936152	-0.24056065874047364	0.0	1.011574962930199	-0.20823163260922356	0.0	1.0107342399108294	-0.21137076418699427	0.0	1.0279560044357712	-0.24883149317524947	0.0	0.86740170016113	-0.34605144104747254	0.0	0.8151764981702788	-0.35381728880483365	0.0	0.8361994948508831	-0.33333355947273896	0.0	0.880287734641949	-0.3388834582833037	0.0	0.9410813820377149	-0.30021261559487267	0.0	0.9623192171451104	-0.23669372897748728	0.0	0.8786760018988286	-0.34352858852072693	0.0	0.9353490685644247	-0.30387576431708874	0.0	0.9577562184334183	-0.24730048474173297	0.0
66	2.2091666666666665	0.9753430585830477	-0.30828361673913446	0.0	0.9742901764290889	-0.30879453105344074	0.0	0.902287687518388	-0.23158850971821596	0.0	0.9910966786422276	-0.219804458340292	0.0	0.9947685052136722	-0.20539802965202078	0.0	0.9993117631600419	-0.20234907306329067	0.0	1.00580254677886	-0.2241056543507437	0.0	0.9749014042647124	-0.3045267785414989	0.0	0.9067009566813932	-0.23302217385794075	0.0	0.9872975448858273	-0.21039515355533442	0.0	0.9870583606187378	-0.1732349543185378	0.0	0.9879540608348487	-0.17507751907765823	0.0	1.0071845796621042	-0.21257990888247696	0.0	0.8864085648086584	-0.36609283488794647	0.0	0.8450041844622115	-0.3924124356181536	0.0	0.8559610771757927	-0.3687754015876534	0.0	0.8962308299778792	-0.35444872609911954	0.0	0.9484637468578089	-0.3029933619706259	0.0	0.9577080594877934	-0.23777095437970416	0.0	0.8963042956138788	-0.3603820348867578	0.0	0.9435020909618841	-0.309822842276994	0.0	0.9525230828402993	-0.24890064022086333	0.0
